<?xml version="1.0" standalone="no"?>
<!DOCTYPE svg PUBLIC "-//W3C//DTD SVG 20010904//EN"
 "http://www.w3.org/TR/2001/REC-SVG-20010904/DTD/svg10.dtd">
<svg version="1.0" xmlns="http://www.w3.org/2000/svg"
 width="512.000000pt" height="512.000000pt" viewBox="0 0 512.000000 512.000000"
 preserveAspectRatio="xMidYMid meet">
<metadata>
Created by potrace 1.14, written by Peter Selinger 2001-2017
</metadata>
<g transform="translate(0.000000,512.000000) scale(0.100000,-0.100000)"
fill="#000000" stroke="none">
<path d="M4005 3660 c-191 -40 -306 -99 -421 -215 -61 -62 -101 -127 -131
-215 l-22 -65 -1 242 0 241 -215 -1 -215 0 -1 -31 c0 -17 0 -334 0 -705 0
-370 -4 -669 -8 -665 -8 9 -118 185 -136 216 -11 21 -505 814 -540 868 -71
110 -165 263 -165 268 -1 4 -9 17 -19 28 -17 21 -25 22 -244 22 l-227 0 0
-257 0 -256 -28 80 c-15 44 -39 100 -53 125 -90 151 -263 261 -462 293 -59 10
-224 14 -600 14 l-517 1 0 -1049 0 -1049 230 0 230 0 0 375 0 375 28 0 c15 0
145 1 289 1 144 1 281 5 305 9 24 5 59 10 78 13 104 15 235 85 324 172 80 78
120 145 153 255 l22 75 0 -637 1 -638 215 0 215 0 2 702 3 701 41 -64 c23 -35
205 -327 404 -649 199 -322 378 -609 397 -637 l34 -53 230 0 229 0 0 168 0
167 32 -50 c63 -101 209 -219 327 -263 157 -59 278 -80 466 -80 77 -1 160 3
185 8 25 4 63 10 85 13 129 18 308 103 404 191 81 75 155 205 176 311 15 74
14 224 -2 289 -45 180 -188 324 -400 406 -43 16 -203 60 -273 75 -8 2 -60 15
-115 30 -55 15 -109 29 -120 31 -37 7 -180 56 -215 74 -54 28 -88 64 -99 108
-30 110 28 219 142 267 106 44 314 33 423 -23 81 -41 125 -103 146 -207 8 -34
18 -55 27 -57 9 -2 108 -3 221 -3 l205 1 1 39 c1 22 -4 70 -12 106 -54 267
-247 440 -563 506 -111 23 -365 25 -466 3z m-3052 -381 c136 -22 228 -91 259
-194 12 -40 11 -182 -1 -224 -24 -80 -90 -142 -187 -177 -40 -14 -94 -18 -306
-22 l-258 -4 0 316 0 317 216 -1 c119 -1 244 -6 277 -11z m2537 -494 c38 -67
104 -134 177 -181 66 -43 213 -106 299 -130 66 -18 241 -64 264 -69 318 -76
443 -160 441 -300 0 -64 -18 -110 -57 -148 -72 -72 -174 -107 -320 -109 -218
-4 -342 45 -432 170 -39 55 -54 105 -61 205 -1 4 -84 7 -186 7 l-185 0 1 358
c0 331 1 353 15 303 8 -30 28 -78 44 -106z"/>
</g>
</svg>
